<?xml version="1.0" encoding="utf-8"?>
<!-- Generator: Adobe Illustrator 25.4.1, SVG Export Plug-In . SVG Version: 6.00 Build 0)  -->
<svg version="1.1" id="Layer_1" xmlns="http://www.w3.org/2000/svg" xmlns:xlink="http://www.w3.org/1999/xlink" x="0px" y="0px"
	 viewBox="0 0 52 53.17" style="enable-background:new 0 0 52 53.17;" xml:space="preserve">
<style type="text/css">
	.st0{fill:#FFFFFF;}
</style>
<g>
	<path class="st0" d="M19.78,43.5c-1.2-0.42-2.5-1.67-2.96-2.86c-3.53-8.99-5.34-18.35-5.57-28.02c-0.06-2.4,0.93-3.49,3.25-3.67
		c3.51-0.28,6.77-1.1,9.92-2.94c1.39-0.81,4.33-0.81,5.44,0.14c2.7,2.3,5.89,2.73,8.97,3.61c5.87,1.69,6.08,1.66,4.69,7.55
		c-1.85,7.82-3.59,15.61-3.77,23.7c-0.08,3.63-0.6,3.98-4.38,4.38L19.78,43.5z"/>
</g>
</svg>
