<svg xmlns="http://www.w3.org/2000/svg" xml:space="preserve" id="Layer_1" x="0" y="0" style="enable-background:new 0 0 994 315.3" version="1.1" viewBox="0 0 994 315.3"><style>.st0{fill:#f4f5f5}.st1{fill:#5b5c5e}.st4{fill:none;stroke:#4278bb;stroke-width:30;stroke-linecap:round;stroke-miterlimit:10}</style><path d="M527.6 10.7c-137.1 10.8-255 42.8-352.5 97.4C77.6 162.5 20.2 228.4 0 304.7v-294h527.6z" class="st0"/><text class="st1" style="font-size:137px;font-family:&quot;Helvetica-Light&quot;" transform="translate(405.105 164.564)">radtools</text><path d="M669.6 10.6h310.5V184c-14.7-44.1-49.7-82.3-106.5-114.1-56.8-31.7-125.2-51.1-204-59.3z" class="st0"/><path d="M388.8 51.5c-1.3 42.4-5.9 84.6-13.8 126.2" class="st4"/><path d="M321.7 103.6c-10.3-16.5-15.2-39.4-3.1-54.7 11.5-14.4 32.5-15.8 51-15.9 27.6-.2 55.3-.3 82.9-.5" class="st4"/><path id="oMQTdv_00000133502531707436166230000005093509933844275075_" d="M129.1 164.6c26.5-.8 51.4 6.7 76.1 15 17.2 5.8 34.1 12.8 51.7 17.2 11.9 2.9 24.8 2.1 37.2 3 45.8 3.2 91.5 6.2 137.3 9.9 10.5.8 20.7 4.3 31.2 5.7 7.1 1 14.4 1 21.7 1 31.9 0 63.9.1 95.8-.4 22.2-.3 44.4-1.6 66.7-2.2 34.8-.9 69.6-1.5 104.4-2.4 32.9-.9 65.8-2.1 98.7-3.1 5.5-.2 8.6-1.8 10.5-7.5 1.2-3.8 5-7.9 8.7-9.4 27.7-11.6 56.7-17.8 86.8-19.1 7.5-.3 10.9 2.7 11.6 9.9 1.1 10.9 3.9 21 9.8 30.7 2.6 4.3 2.8 13.4-.1 16.9-7 8.5-8.1 18.5-10.7 28.1-4.9 18.4-4.8 19-23.2 15.1-24.4-5.2-48.8-10.2-74-10.2-11.3 0-12.4-1.6-13.9-13.3-1-8.2-5-10.3-12.9-10.4-54.2-.3-108.4-1.1-162.5-1.5-38.7-.3-77.4-.4-116.1-.4-31.1 0-62.2.2-93.3.5-6.6.1-14.4-1.6-16.2 8.5-.2 1.1-2.8 2.2-4.4 2.5-12.2 2.4-24.8 3.7-36.6 7.3-9.3 2.8-18 1.6-26.9.7-28-3-56.6-3.7-83.7-10.3-18.4-4.5-36.5-1.6-54.6-5.3-8.4-1.7-17.9 2-26.9 3.6-25.8 4.8-51.4 10.6-77.4 14.4-25 3.7-50.3 4.2-74.6-4.8-12.9-4.7-24-11.9-27.8-26.6-5-19.2 5.2-32.4 18.6-43 20.1-15.7 44-20.3 69-20.1zm127.6 47.1c-2-.9-3.6-1.8-5.4-2.4-15.2-5.3-30.4-10.6-45.6-15.7-26.5-8.9-53.1-17.3-81.7-15.9-22.2 1.1-42.9 6-60.2 21.2-11.7 10.3-14.1 24.4-3.6 33.4 5.9 5 13.4 9 20.8 11.4 28.1 9 56.3 3.5 84.3-1.5 24.8-4.5 49.4-10 74.2-14.4 14-2.5 14.1-1.9 17.2-16.1zm596.9 10.1c-32.3.9-63.1 1.8-93.9 2.7 30.6 1.9 61.2 1.9 91.8 1.7.4 0 .8-1.7 2.1-4.4z" class="st1"/></svg>